<svg xmlns="http://www.w3.org/2000/svg" viewBox="0 0 281.1955 91.70326"><defs><style>.cls-1{font-size:72.17774px;font-family:Roboto-Bold, Roboto;font-weight:700;}.cls-1,.cls-2{fill:#fff;}</style></defs><g id="Layer_2" data-name="Layer 2"><g id="Layer_1-2" data-name="Layer 1"><path d="M270.2993,0H0V2.21959H8.44045V89.48375H0v2.21951H281.1955V89.48375H270.2993Z"/><text class="cls-1" transform="translate(26.2497 70.33934)">NF</text><path class="cls-2" d="M138.78114,32.67454c12.27377,0,17.51155,6.176,17.04277,17.82468H133.77775v3.04891c0,9.22487,1.64165,15.47895,9.22486,15.47895,5.7853,0,9.694-3.674,11.414-9.69364l1.40726.23439C154.02569,66.2913,149.96048,71.451,138.85927,71.451c-13.91573,0-20.17012-7.97417-20.17012-19.31039C118.68915,38.6161,127.91432,32.67454,138.78114,32.67454Zm3.127,16.26085V45.10457c0-8.20856-.62566-10.94433-3.83083-10.94433-2.73608,0-4.22147,2.65764-4.22147,10.94433v3.83082Z"/><path class="cls-2" d="M161.76237,34.86341h-4.29991v-1.407h4.29991V23.37155l14.54108-3.59644V33.45645h11.414V23.37155l14.54108-3.59644V33.45645h10.163v1.407h-10.163V61.20979c0,4.61212.70347,7.11412,3.43987,7.11412,3.75238,0,6.09782-3.44018,6.80129-8.75608l1.32913.15626c-.70378,6.09782-3.2836,11.72686-12.82129,11.72686-6.48878,0-11.3356-1.56383-12.821-7.66165-1.56352,4.2996-5.08183,7.66165-12.74317,7.66165-7.8176,0-13.681-2.267-13.681-11.96125Zm25.95511,0h-11.414V61.20979c0,4.61212.7816,7.11412,4.5343,7.11412,3.43986,0,6.176-3.44018,6.87973-8.83421Z"/><path class="cls-2" d="M235.08938,32.67454c12.27377,0,17.51154,6.176,17.04277,17.82468H230.086v3.04891c0,9.22487,1.64165,15.47895,9.22486,15.47895,5.7853,0,9.694-3.674,11.414-9.69364l1.40726.23439C250.33393,66.2913,246.26871,71.451,235.16751,71.451c-13.91573,0-20.17012-7.97417-20.17012-19.31039C214.99739,38.6161,224.22256,32.67454,235.08938,32.67454Zm3.127,16.26085V45.10457c0-8.20856-.62566-10.94433-3.83083-10.94433-2.73608,0-4.22147,2.65764-4.22147,10.94433v3.83082Z"/></g></g></svg>